<?xml version="1.0" encoding="utf-8"?>
<svg version="1.1" xmlns:xlink="http://www.w3.org/1999/xlink" width="26px" height="26px" viewBox="604 122  26 26" xmlns="http://www.w3.org/2000/svg">
  <path d="M 617 122  C 624.28 122  630 127.72  630 135  C 630 142.28  624.28 148  617 148  C 609.72 148  604 142.28  604 135  C 604 127.72  609.72 122  617 122  Z " fill-rule="nonzero" fill="#ffffff" stroke="none" />
  <path d="M 617 122.5  C 624 122.5  629.5 128  629.5 135  C 629.5 142  624 147.5  617 147.5  C 610 147.5  604.5 142  604.5 135  C 604.5 128  610 122.5  617 122.5  Z " stroke-width="1" stroke="#797979" fill="none" />
  <path d="M 617 141.5  C 613.36 141.5  610.5 138.64  610.5 135  C 610.5 131.36  613.36 128.5  617 128.5  C 620.64 128.5  623.5 131.36  623.5 135  C 623.5 138.64  620.64 141.5  617 141.5  " fill-rule="nonzero" fill="#797979" stroke="none" />
</svg>